<svg width="150" height="150" viewBox="0 0 150 150" fill="none" xmlns="http://www.w3.org/2000/svg">
<rect width="150" height="150" rx="30" fill="#282827"/>
<path d="M95.6271 43.0342C96.6182 42.9273 99.8999 43.0876 101.186 43.2879C102.726 43.5418 104.802 44.2231 106.235 44.931L107.28 45.4519L110.655 45.2115C112.517 45.078 114.982 44.931 116.147 44.8909C117.312 44.8375 118.424 44.7841 118.638 44.7574C118.839 44.744 119 44.7574 119 44.8108C118.999 45.0519 111.272 53.6398 111.057 53.6404C110.977 53.6404 110.963 54.1614 111.017 54.9362C111.151 57.0601 110.763 60.5599 110.012 63.9796C109.102 68.1339 107.36 72.5555 105.124 76.4293C101.413 82.8545 95.9084 88.8791 89.5328 93.4742C79.3264 100.821 66.4009 105.35 51.5602 106.752C47.2606 107.166 35.487 107.033 34.6968 106.565C34.6301 106.525 35.4203 106.218 36.4381 105.871C47.0865 102.264 56.449 97.2679 63.5077 91.4171C65.1954 90.0279 68.1422 87.1291 69.2941 85.7265L69.8834 85.0185L68.6243 85.0987C65.2624 85.3525 61.3245 84.3373 58.1501 82.4137C56.5428 81.4386 55.5516 80.6638 54.0782 79.2345C53.0067 78.2193 51.2521 76.1756 51.1181 75.8149C51.0913 75.7481 51.2788 75.748 51.5199 75.8282C52.5111 76.1221 55.8463 76.6297 57.9224 76.8167C65.8919 77.5247 73.4597 76.0686 80.0228 72.5421C80.7997 72.128 81.3086 71.8207 81.1613 71.8742C81.0139 71.9276 80.5854 72.0746 80.197 72.2082C79.0317 72.6223 75.5223 73.3837 73.5266 73.6642C72.4953 73.8111 71.3836 73.9581 71.0487 74.0115C69.7629 74.1852 61.8068 74.2386 60.0253 74.0783C58.0162 73.9046 55.1899 73.5172 53.663 73.1966C46.323 71.7139 38.849 68.3076 33.7592 64.1398C32.4064 63.0178 31 61.7621 31 61.6553C31.0003 61.6018 32.0048 61.5217 33.2503 61.4816C41.8627 61.161 53.288 58.7967 62.9452 55.3369C68.1556 53.4668 71.0621 52.2378 77.411 49.2323C86.8003 44.784 90.2426 43.6086 95.6271 43.0342Z" fill="#FFC800"/>
</svg>
